HIERARCHY
ROOT Hips
{
	OFFSET 0.000000 0.000000 0.000000
	CHANNELS 6 Xposition Yposition Zposition Zrotation Yrotation Xrotation 
	JOINT LHipJoint
	{
		OFFSET 0.000000 0.000000 0.000000
		CHANNELS 3 Zrotation Yrotation Xrotation
		JOINT LeftUpLeg
		{
			OFFSET 1.363060 -1.794630 0.839290
			CHANNELS 3 Zrotation Yrotation Xrotation
			JOINT LeftLeg
			{
				OFFSET 2.448110 -6.726130 0.000000
				CHANNELS 3 Zrotation Yrotation Xrotation
				JOINT LeftFoot
				{
					OFFSET 2.562200 -7.039590 0.000000
					CHANNELS 3 Zrotation Yrotation Xrotation
					JOINT LeftToeBase
					{
						OFFSET 0.157640 -0.433110 2.322550
						CHANNELS 3 Zrotation Yrotation Xrotation
						End Site
						{
							OFFSET 0.000000 0.000000 0.000000
						}
					}
				}
			}
		}
	}
	JOINT RHipJoint
	{
		OFFSET 0.000000 0.000000 0.000000
		CHANNELS 3 Zrotation Yrotation Xrotation
		JOINT RightUpLeg
		{
			OFFSET -1.305520 -1.794630 0.839290
			CHANNELS 3 Zrotation Yrotation Xrotation
			JOINT RightLeg
			{
				OFFSET -2.542530 -6.985550 0.000000
				CHANNELS 3 Zrotation Yrotation Xrotation
				JOINT RightFoot
				{
					OFFSET -2.568260 -7.056230 0.000000
					CHANNELS 3 Zrotation Yrotation Xrotation
					JOINT RightToeBase
					{
						OFFSET -0.164730 -0.452590 2.363150
						CHANNELS 3 Zrotation Yrotation Xrotation
						End Site
						{
							OFFSET 0.000000 0.000000 0.000000
						}
					}
				}
			}
		}
	}
	JOINT LowerBack
	{
		OFFSET 0.000000 0.000000 0.000000
		CHANNELS 3 Zrotation Yrotation Xrotation
		JOINT Spine
		{
			OFFSET 0.028270 2.035590 -0.193380
			CHANNELS 3 Zrotation Yrotation Xrotation
			JOINT Spine1
			{
				OFFSET 0.056720 2.048850 -0.042750
				CHANNELS 3 Zrotation Yrotation Xrotation
				JOINT Neck
				{
					OFFSET 0.000000 0.000000 0.000000
					CHANNELS 3 Zrotation Yrotation Xrotation
					JOINT Neck1
					{
						OFFSET -0.054170 1.746240 0.172020
						CHANNELS 3 Zrotation Yrotation Xrotation
						JOINT Head
						{
							OFFSET 0.104070 1.761360 -0.123970
							CHANNELS 3 Zrotation Yrotation Xrotation
							End Site
							{
								OFFSET 0.000000 0.000000 0.000000
							}
						}
					}
				}
				JOINT LeftShoulder
				{
					OFFSET 0.000000 0.000000 0.000000
					CHANNELS 3 Zrotation Yrotation Xrotation
					JOINT LeftArm
					{
						OFFSET 3.362410 1.200890 -0.311210
						CHANNELS 3 Zrotation Yrotation Xrotation
						JOINT LeftForeArm
						{
							OFFSET 4.983000 -0.000000 -0.000000
							CHANNELS 3 Zrotation Yrotation Xrotation
							JOINT LeftHand
							{
								OFFSET 3.483560 -0.000000 -0.000000
								CHANNELS 3 Zrotation Yrotation Xrotation
								JOINT LeftFingerBase
								{
									OFFSET 0.000000 0.000000 0.000000
									CHANNELS 3 Zrotation Yrotation Xrotation
									JOINT LeftHandIndex1
									{
										OFFSET 0.715260 -0.000000 -0.000000
										CHANNELS 3 Zrotation Yrotation Xrotation
										End Site
										{
											OFFSET 0.000000 0.000000 0.000000
										}
									}
								}
								JOINT LThumb
								{
									OFFSET 0.000000 0.000000 0.000000
									CHANNELS 3 Zrotation Yrotation Xrotation
									End Site
									{
										OFFSET 0.000000 0.000000 0.000000
									}
								}
							}
						}
					}
				}
				JOINT RightShoulder
				{
					OFFSET 0.000000 0.000000 0.000000
					CHANNELS 3 Zrotation Yrotation Xrotation
					JOINT RightArm
					{
						OFFSET -3.136600 1.374050 -0.404650
						CHANNELS 3 Zrotation Yrotation Xrotation
						JOINT RightForeArm
						{
							OFFSET -5.241900 -0.000000 -0.000000
							CHANNELS 3 Zrotation Yrotation Xrotation
							JOINT RightHand
							{
								OFFSET -3.444170 -0.000000 -0.000000
								CHANNELS 3 Zrotation Yrotation Xrotation
								JOINT RightFingerBase
								{
									OFFSET 0.000000 0.000000 0.000000
									CHANNELS 3 Zrotation Yrotation Xrotation
									JOINT RightHandIndex1
									{
										OFFSET -0.622530 -0.000000 -0.000000
										CHANNELS 3 Zrotation Yrotation Xrotation
										End Site
										{
											OFFSET 0.000000 0.000000 0.000000
										}
									}
								}
								JOINT RThumb
								{
									OFFSET 0.000000 0.000000 0.000000
									CHANNELS 3 Zrotation Yrotation Xrotation
									End Site
									{
										OFFSET 0.000000 0.000000 0.000000
									}
								}
							}
						}
					}
				}
			}
		}
	}
}
MOTION
Frames: 4
Frame Time: 0.008333
4.603552 18.184222 9.510703 18.927426 56.238916 20.205180 -3.553985 -0.633178 2.493518 -11.596168 4.068908 -8.419232 0.252670 11.034068 32.971939 3.882874 -5.206367 28.133591 5.258780 -13.669403 -41.929056 -1.250265 2.481904 -3.490895 15.959694 -3.383342 -33.853553 -16.193616 -22.027139 77.743914 2.365083 -8.213865 2.741426 -0.225723 3.058325 -8.441270 -5.906358 3.690518 13.322456 -0.019197 4.738772 -2.290434 4.124622 2.038681 2.021315 -11.246015 -9.892305 -0.937822 4.911733 -14.619709 5.154551 9.341821 -5.159072 -2.319959 -0.674007 0.663053 2.264044 -47.267433 -45.062601 27.709302 79.046842 -60.363492 -53.335170 1.055555 -0.397895 30.331302 30.745953 39.763134 20.123500 -7.125000 0.000000 0.000000 -10.696300 73.836800 -7.317100 -1.627221 -0.213735 1.168295 38.484163 44.297849 22.784625 -94.315814 58.988236 -62.531621 -0.379771 -0.242981 11.371172 -24.988000 36.645670 -15.484100 7.125000 0.000000 0.000000 4.929800 9.662900 5.706700 
4.754638 18.207115 9.624209 19.128775 56.299310 20.332089 -3.585214 -0.536782 2.639735 -11.532888 4.089622 -7.855450 0.150970 10.862169 32.531011 3.886110 -4.932592 29.251265 5.130825 -13.529617 -41.384924 -1.237913 2.482108 -3.564739 15.741193 -3.627845 -34.152676 -15.889371 -22.003746 76.815600 2.381464 -8.256666 2.861078 -0.226982 3.066872 -8.465110 -5.939312 3.620560 13.241565 -0.014817 4.651779 -2.292648 4.116376 1.980685 2.033810 -11.189526 -9.841286 -0.933992 4.889820 -14.535337 5.213506 9.310097 -5.140762 -2.296320 -0.723089 0.677481 2.239106 -47.273829 -45.279351 27.381549 79.305622 -60.406951 -53.565440 1.035776 -0.411373 30.714682 28.676688 40.233939 18.753800 -7.125000 0.000000 0.000000 -14.506200 73.532300 -9.852700 -1.621825 -0.258796 1.149366 38.263902 44.314882 22.202386 -94.262957 58.999219 -62.497747 -0.379154 -0.242194 11.432930 -24.967111 36.611074 -15.458300 7.125000 0.000000 0.000000 4.933200 9.621800 5.707800 
4.906087 18.230670 9.738933 19.300881 56.378898 20.448301 -3.622079 -0.432663 2.788348 -11.430837 4.080292 -7.298290 0.052983 10.682609 32.036818 3.880475 -4.543783 30.421288 4.967006 -13.346555 -40.680053 -1.219251 2.480658 -3.636521 15.551550 -3.889179 -34.427084 -15.553009 -21.966799 75.799891 2.405519 -8.324368 3.044395 -0.250536 3.220915 -8.894496 -5.964057 3.546209 13.152922 -0.007784 4.562760 -2.296396 4.127289 1.918960 2.054679 -11.128216 -9.792954 -0.966238 4.870012 -14.453075 5.276713 9.268709 -5.125496 -2.254577 -0.769861 0.688600 2.214541 -47.246470 -45.289610 27.042510 79.732991 -60.461356 -53.945720 1.014954 -0.438776 31.166192 25.929283 40.378772 16.784000 -7.125000 0.000000 0.000000 -18.585800 72.678200 -12.327100 -1.607920 -0.304846 1.125624 38.274863 44.272142 21.887007 -94.239335 58.995627 -62.487348 -0.377138 -0.241481 11.646110 -24.901915 36.492832 -15.375400 7.125000 0.000000 0.000000 4.942300 9.484800 5.708600 
5.057716 18.254553 9.854259 19.458907 56.467921 20.559616 -3.661577 -0.324663 2.938102 -11.309871 4.055330 -6.744442 -0.042174 10.498789 31.516590 3.876481 -4.097793 31.617044 4.787489 -13.140446 -39.896499 -1.197466 2.478407 -3.707282 15.376756 -4.159141 -34.688941 -15.201381 -21.919609 74.741201 2.433150 -8.404462 3.259208 -0.287200 3.446610 -9.524746 -5.984669 3.469674 13.060460 0.000566 4.472739 -2.300912 4.147657 1.855381 2.079668 -11.064562 -9.745904 -1.016296 4.851299 -14.371845 5.341998 9.222548 -5.111704 -2.203884 -0.815491 0.698073 2.190158 -46.891491 -45.292454 26.426011 80.185489 -60.496934 -54.356114 0.990297 -0.464002 31.293904 23.286171 40.415878 14.899900 -7.125000 0.000000 0.000000 -22.098900 71.785900 -14.290700 -1.589793 -0.351380 1.099491 38.142008 44.372648 21.541266 -94.195299 58.998217 -62.454928 -0.372619 -0.240176 11.995505 -24.846267 36.390193 -15.305900 7.125000 0.000000 0.000000 4.947600 9.365500 5.706400 
